<?xml version="1.0" standalone="no"?>
<!DOCTYPE svg PUBLIC "-//W3C//DTD SVG 20010904//EN"
 "http://www.w3.org/TR/2001/REC-SVG-20010904/DTD/svg10.dtd">
<svg version="1.0" xmlns="http://www.w3.org/2000/svg"
 width="300.000000pt" viewBox="0 0 1504.000000 505.000000"
 preserveAspectRatio="xMidYMid meet">
<metadata>
Created by potrace 1.14, written by Peter Selinger 2001-2017
</metadata>
<!--
<g transform="translate(0.000000,505.000000) scale(0.100000,-0.100000)"
fill="#FFFFFF" stroke="none" fill-opacity="0.6">
<g transform="translate(0.000000,505.000000) scale(0.100000,-0.100000)"
fill="#FFFFFF" stroke="none">
-->
<g transform="translate(0.000000,505.000000) scale(0.100000,-0.100000)"
fill="#000000" stroke="none">
<!--
<path d="M0 2525 l0 -2525 7520 0 7520 0 0 2525 0 2525 -7520 0 -7520 0 0
-2525z m15020 0 l0 -2515 -7505 0 -7505 0 0 2515 0 2515 7505 0 7505 0 0
-2515z"/>
-->
<path d="M8182 4625 c-185 -42 -357 -175 -446 -345 -57 -109 -70 -168 -69
-320 0 -118 4 -145 27 -217 50 -155 174 -303 314 -376 124 -64 160 -72 332
-72 146 0 160 2 233 29 101 37 177 88 258 172 74 78 106 128 146 229 26 66 27
79 27 235 0 145 -3 172 -22 224 -76 205 -222 350 -418 418 -105 36 -280 47
-382 23z m306 -390 c61 -33 92 -66 130 -139 35 -68 38 -186 5 -257 -109 -239
-441 -251 -560 -20 -29 55 -33 72 -33 139 0 99 35 178 105 240 63 55 119 73
220 69 66 -3 90 -8 133 -32z"/>
<path d="M10305 4627 c-245 -53 -448 -245 -510 -482 -24 -92 -21 -295 6 -381
64 -208 210 -363 417 -442 62 -24 79 -26 232 -26 153 0 170 2 232 26 209 79
354 235 418 446 20 65 22 89 18 220 -4 128 -8 156 -30 213 -76 194 -231 344
-425 408 -81 27 -271 36 -358 18z m283 -388 c234 -117 226 -451 -13 -561 -74
-34 -191 -32 -261 4 -65 34 -137 114 -158 175 -47 139 17 313 138 375 60 31
83 36 162 37 60 1 80 -4 132 -30z"/>
<path d="M2733 3714 c-10 -4 -13 -277 -13 -1315 l0 -1309 233 0 234 0 6 337
c4 186 7 776 7 1311 l0 972 -153 0 c-85 0 -187 2 -228 5 -41 3 -80 2 -86 -1z"/>
<path d="M7528 3193 l-48 -4 0 -175 0 -174 320 0 320 0 0 -875 0 -875 208 0
209 0 6 227 c4 124 7 518 7 875 l0 648 325 0 325 0 0 180 0 180 -812 -2 c-447
-1 -834 -3 -860 -5z"/>
<path d="M9570 3020 l0 -180 325 0 325 0 0 -875 0 -875 208 0 209 0 6 227 c4
124 7 518 7 875 l0 648 319 0 318 0 7 46 c3 26 6 107 6 180 l0 134 -865 0
-865 0 0 -180z"/>
<path d="M1375 3049 c-151 -22 -260 -71 -363 -164 l-62 -57 0 69 c0 123 17
113 -204 113 -105 0 -201 -3 -213 -6 l-23 -6 0 -1299 0 -1299 213 0 c116 0
222 3 233 6 21 6 22 9 29 415 4 225 11 409 15 409 4 0 31 -17 61 -39 77 -55
169 -99 258 -123 63 -18 106 -22 251 -22 204 -1 254 9 398 80 210 103 365 332
429 635 25 121 25 466 0 559 -31 114 -79 253 -105 305 -56 112 -188 250 -302
317 -160 94 -408 137 -615 107z m264 -413 c69 -36 177 -145 218 -223 145 -270
105 -668 -85 -862 -36 -36 -82 -70 -126 -91 -60 -30 -81 -35 -160 -38 -109 -4
-184 16 -270 72 -169 113 -260 342 -241 611 16 231 53 326 175 446 107 106
145 120 310 116 113 -3 130 -7 179 -31z"/>
<path d="M4196 3045 c-148 -21 -190 -32 -270 -69 -114 -52 -195 -110 -240
-171 -98 -130 -129 -207 -143 -347 l-6 -68 236 0 236 0 7 38 c16 93 90 176
194 219 37 15 72 18 195 18 135 0 155 -2 200 -23 92 -42 135 -104 135 -194 0
-62 -20 -97 -73 -134 -51 -34 -116 -48 -411 -89 -306 -43 -383 -61 -496 -117
-193 -95 -291 -259 -293 -492 0 -108 14 -178 56 -265 37 -77 140 -185 212
-223 262 -139 731 -109 982 63 23 16 44 29 47 29 3 0 13 -16 22 -36 25 -53
120 -120 192 -135 72 -15 244 -7 338 15 l71 17 7 46 c9 70 7 239 -4 267 -9 25
-13 26 -75 25 -45 -1 -72 3 -90 15 l-25 16 -1 433 c0 237 -4 509 -8 602 -7
166 -8 172 -40 234 -38 74 -122 167 -191 211 -66 42 -187 85 -300 105 -131 23
-341 28 -464 10z m524 -1196 c0 -82 -5 -159 -12 -182 -17 -55 -115 -159 -181
-191 -172 -84 -406 -70 -518 31 -65 59 -76 150 -29 247 48 101 173 144 583
200 59 9 115 20 125 25 9 6 20 11 25 11 4 0 7 -64 7 -141z"/>
<path d="M6463 3049 c-121 -20 -260 -89 -352 -175 -32 -30 -61 -54 -65 -54 -3
0 -6 22 -6 49 0 26 -3 69 -6 95 l-7 46 -216 -2 -216 -3 -3 -958 -2 -957 232 2
233 3 7 627 7 627 37 73 c43 86 124 174 197 214 45 25 65 29 154 32 164 7 248
-35 308 -154 28 -55 30 -67 36 -228 4 -94 8 -290 8 -436 1 -146 4 -376 8 -512
l6 -248 227 0 227 0 7 563 c7 605 -2 905 -30 997 -37 128 -126 245 -228 305
-143 84 -384 124 -563 94z"/>
<path d="M12175 3049 c-410 -58 -701 -374 -769 -832 -20 -130 -20 -222 -1
-357 22 -152 42 -223 92 -330 86 -186 208 -315 368 -391 159 -77 244 -94 465
-94 159 0 198 4 275 23 247 62 442 218 546 437 30 64 49 120 54 158 l6 57
-223 0 -224 0 -23 -55 c-27 -66 -106 -155 -167 -191 -24 -14 -67 -32 -96 -40
-61 -16 -194 -18 -256 -4 -182 42 -320 215 -346 432 l-5 46 668 4 c573 3 670
5 686 18 16 13 17 30 12 190 -4 136 -10 192 -27 249 -86 303 -313 557 -568
638 -153 48 -318 63 -467 42z m320 -414 c85 -41 165 -126 214 -227 22 -45 43
-102 46 -125 l7 -43 -441 0 -441 0 0 44 c0 62 69 196 135 262 30 30 81 66 125
88 75 37 75 37 186 33 97 -3 118 -7 169 -32z"/>
<path d="M14380 3050 c-128 -19 -240 -79 -347 -187 -46 -46 -85 -83 -88 -83
-3 0 -5 42 -5 93 0 151 22 137 -220 137 l-207 0 -6 -242 c-4 -133 -7 -565 -7
-960 l0 -718 235 0 235 0 1 228 c0 125 4 373 8 552 8 323 9 326 36 400 55 146
140 242 272 307 l72 36 146 -5 146 -5 -3 213 c-2 133 -7 217 -14 224 -14 14
-184 21 -254 10z"/>
</g>
</svg>
