<?xml version="1.0" encoding="UTF-8" standalone="no"?>

<svg
   xmlns:dc="http://purl.org/dc/elements/1.1/"
   xmlns:cc="http://creativecommons.org/ns#"
   xmlns:rdf="http://www.w3.org/1999/02/22-rdf-syntax-ns#"
   xmlns:svg="http://www.w3.org/2000/svg"
   xmlns="http://www.w3.org/2000/svg"
   xmlns:sodipodi="http://sodipodi.sourceforge.net/DTD/sodipodi-0.dtd"
   xmlns:inkscape="http://www.inkscape.org/namespaces/inkscape"
   width="906.7915"
   viewBox="0 0 680.09363 291.62488"
   preserveAspectRatio="xMidYMid meet"
   version="1.1">

  <g
    fill="#FFFFFF"
    stroke="none">

    <path
       d="m 452.02179,65.688432 a 16.719998,16.960001 0 0 0 16.72,16.96 16.719998,16.960001 0 0 0 16.72,-16.96 16.719998,16.960001 0 0 0 -16.72,-16.96 16.719998,16.960001 0 0 0 -16.72,16.96 z M 424.75965,45.826336 c -2.71951,-0.05176 -3.74243,3.067208 -3.78685,6.549216 -0.0999,7.83268 -0.53217,11.608584 -3.69879,19.634192 -3.98446,7.576672 -13.18168,9.407008 -15.79092,10.125128 L 379.4801,87.8738 h -0.0406 v 0.0072 l -38.96585,10.165312 c -1.6,0.399984 -2.47974,1.995698 -2.07972,3.515668 l 1.99841,7.43984 c 0.40002,1.52 2.00265,2.48262 3.52263,2.0826 L 379.43954,101.716 V 214.5993 H 394.1466 V 97.758032 c 2.24697,-0.603408 5.33118,-1.439064 13.38604,-3.642912 10.45536,-3.53508 15.93849,-8.281176 19.37455,-14.71896 3.43606,6.437784 8.91919,11.18388 19.37456,14.71896 8.05485,2.203848 11.13906,3.039504 13.38603,3.642912 V 214.59895 h 14.70707 V 101.71566 l 35.53128,9.36842 c 1.51998,0.40002 3.11585,-0.5626 3.51587,-2.08261 l 1.99841,-7.43983 c 0.40002,-1.51998 -0.47972,-3.115688 -2.07972,-3.515672 L 474.37485,87.880656 v -0.0072 h -0.0406 L 452.3313,82.134528 C 449.72205,81.41644 440.52484,79.586072 436.54035,72.0094 c -3.16662,-8.025608 -3.59883,-11.801512 -3.69875,-19.634192 -0.0444,-3.482008 -1.06735,-6.60088 -3.78686,-6.549216 l -2.14745,0.03432 z m -22.96597,19.862072 a 16.72,16.960001 0 0 1 -16.72,16.96 16.72,16.960001 0 0 1 -16.72,-16.96 16.72,16.960001 0 0 1 16.72,-16.96 16.72,16.960001 0 0 1 16.72,16.96 z M 597.43223,214.43952 v -90.08 h 11.2 v 13.44 c 5.04,-10.32 33.49486,-12.11817 45.81486,-12.11817 l 0.11588,10.79635 c -6.16,0 -29.02558,-0.0509 -34.14558,4.42909 -7.45402,3.84909 -11.06516,11.37273 -11.06516,18.17273 v 55.44 h -11.92 z m -109.12,-45.36 c 0,-14.08 4.88,-25.6 14.56,-34.48 8.8,-8.16 19.28,-12.24 31.36,-12.24 12.08,0 22.48,4 31.36,12.08 10.08,9.2 15.12,21.52 15.12,36.96 v 2.48 h -80.48 c 0,9.68 3.92,17.52 11.68,23.36 6.56,5.04 13.92,7.52 21.92,7.52 6.32,0 13.78082,-0.39022 20.02082,-3.99022 7.37149,-4.25047 6.90064,-5.06944 12.10887,-10.38614 l 10.62598,4.6391 c -7.93043,8.83359 -8.00365,8.91375 -16.2534,14.93908 -8,4.96 -18.02227,6.63818 -27.06227,6.63818 -12.96,0 -23.76,-4.72 -32.4,-14.08 -8.4,-9.2 -12.56,-20.32 -12.56,-33.44 z m 80.56,-6.24 c -1.6,-8.16 -5.6,-15.04 -12.08,-20.56 -6.48,-5.52 -13.84,-8.24 -22.16,-8.24 -10.88,0 -19.6,4.08 -26.32,12.16 -4.8,5.84 -7.44,11.36 -8,16.64 z m -289.50157,51.6 v -89.76 h 11.36 v 13.44 c 2.96,-4.8 6.96,-8.56 12.08,-11.36 5.12,-2.72 10.56,-4.16 16.24,-4.16 10.32,0 19.28,3.52 26.72,10.56 8.16,7.76 12.24,17.92 12.24,30.48 v 50.8 h -11.68 v -50.8 c 0,-8.48 -2.56,-15.36 -7.68,-20.8 -5.12,-5.44 -11.92,-8.16 -20.32,-8.16 -8,0 -14.56,2.56 -19.52,7.68 -4.96,5.12 -7.44,11.76 -7.44,19.76 v 52.24 h -12 z m -114.48,-44.4 c 0,-14.16 5.04,-25.84 15.04,-35.04 9.28,-8.48 20.08,-12.72 32.56,-12.72 15.92,0 27.6,6.56 34.96,19.76 v -17.36 h 11.6 v 89.92 l -11.6,-0.08 v -17.12 c -3.36,6.24 -8.48,11.04 -15.28,14.4 -6.24,3.2 -13.12,4.72 -20.64,4.72 -13.28,0 -24.32,-4.4 -33.28,-13.28 -8.88,-8.88 -13.36,-19.92 -13.36,-33.2 z m 10.40461,-2.72 c 0,10.16 3.2,18.8 9.52,26.08 6.56,7.52 14.8,11.28 24.88,11.28 9.68,0 18.08,-3.36 25.2,-10.08 7.12,-6.72 10.64,-14.96 10.64,-24.56 0,-10 -3.28,-18.4 -9.84,-25.28 -6.56,-6.88 -14.72,-10.32 -24.4,-10.32 -10,0 -18.64,3.68 -25.92,11.04 -6.72,6.8 -10.08,14.08 -10.08,21.84 z m -39.36461,47.12 v -121.44 h 12.08 v 121.44 z m -110.399998,31.36 v -121.52 h 11.6 v 16.16 c 7.92,-12.08 19.2,-18.16 33.92,-18.16 12.72,0 23.840001,4.16 33.359998,12.4 10.16,8.8 15.2,19.68 15.2,32.64 0,13.92 -4.4,25.52 -13.2,34.8 -8.959997,9.52 -20.399998,14.32 -34.159998,14.32 -7.52,0 -14.24,-1.52 -20.24,-4.64 -6.48,-3.36 -11.28,-8.24 -14.32,-14.64 v 48.56 h -12.16 z m 12.319048,-75.76 c 0,8.64 2.72,16.24 8.16,22.8 6.56,7.92 15.68,11.84 27.44,11.84 9.68,0 17.920001,-3.44 24.560001,-10.32 6.639999,-6.88 9.999999,-15.12 9.999999,-24.88 0,-9.84 -3.44,-18.16 -10.319999,-24.96 -6.88,-6.8 -15.360001,-10.24 -25.360001,-10.24 -10.4,0 -18.88,3.68 -25.44,11.04 -6,6.96 -9.04,15.2 -9.04,24.72 z"/>
  </g>
</svg>
